<svg id="Layer_1" data-name="Layer 1" xmlns="http://www.w3.org/2000/svg" viewBox="0 0 54.6992 50"><defs><style>.cls-1{fill:#007fff;}</style></defs><title>Турбота</title><g id="Canvas"><g id="care"><g id="Vector"><path id="path0_fill" data-name="path0 fill" class="cls-1" d="M50.0537,14.5952a6.02953,6.02953,0,0,0-3.4286-.4047V9a9.02337,9.02337,0,0,0-9-9H16.9346a9.0234,9.0234,0,0,0-9,9v5.1667a6.18734,6.18734,0,0,0-3.28572.4285C1.52988,15.881-.99393,19.9762.387,23.3095A6.73535,6.73535,0,0,0,3.268,26.4286a6.37154,6.37154,0,0,0,1.35715.5238V40.6667A4.14579,4.14579,0,0,0,8.768,44.8095h2.5v2.2381A2.922,2.922,0,0,0,14.1489,50h.6429a2.922,2.922,0,0,0,2.8809-2.9524V44.8095H37.0299v2.2381A2.922,2.922,0,0,0,39.9108,50h.6429a2.922,2.922,0,0,0,2.8809-2.9524V44.8095h2.5953a4.14576,4.14576,0,0,0,4.1428-4.1428V26.9286a6.74356,6.74356,0,0,0,1.2381-.5,6.51928,6.51928,0,0,0,2.881-3.1191C55.7204,19.9762,53.1727,15.881,50.0537,14.5952ZM9.31559,9a7.64146,7.64146,0,0,1,7.619-7.61905H37.6251A7.64148,7.64148,0,0,1,45.2442,9v5.5714a10.069,10.069,0,0,0-5.1429,5.0238,16.81961,16.81961,0,0,0-.5476,4.7858v4.0714H15.1727V24.381a16.66311,16.66311,0,0,0-.5476-4.7858,9.99554,9.99554,0,0,0-5.30951-5.0714ZM15.1727,29.8571h24.381v5.5953H15.1727Zm1.1191,17.1905a1.54056,1.54056,0,0,1-1.5,1.5714h-.6429a1.52558,1.52558,0,0,1-1.5-1.5714V44.8095h3.6429Zm25.7857,0a1.54056,1.54056,0,0,1-1.5,1.5714h-.6429a1.52558,1.52558,0,0,1-1.5-1.5714V44.8095h3.6429ZM53.0537,22.7857a5.06448,5.06448,0,0,1-2.2619,2.4286,3.57439,3.57439,0,0,1-3.0714.3095,4.14769,4.14769,0,0,1-2.1191-2.1905,2.42575,2.42575,0,0,1-.0238-1.8809,3.274,3.274,0,0,1,3.3095-1.5953l.1191-1.3809a4.5813,4.5813,0,0,0-4.6905,2.4048,3.79417,3.79417,0,0,0,0,2.9761,5.50757,5.50757,0,0,0,2.8571,2.9524,4.81456,4.81456,0,0,0,1.6429.3334V40.6667a2.7639,2.7639,0,0,1-2.7619,2.7619H8.768a2.76389,2.76389,0,0,1-2.7619-2.7619V27.1429a4.40625,4.40625,0,0,0,1.54762-.3334,5.4264,5.4264,0,0,0,2.85711-2.9524,3.79659,3.79659,0,0,0,0-2.9761,4.61684,4.61684,0,0,0-4.69045-2.4048l.11905,1.3809a3.25385,3.25385,0,0,1,3.30953,1.5953,2.4155,2.4155,0,0,1-.02381,1.8809,4.23039,4.23039,0,0,1-2.11905,2.1905,3.57444,3.57444,0,0,1-3.07143-.3095,5.06432,5.06432,0,0,1-2.26191-2.4286C.60131,20.2143,2.72035,16.9048,5.19654,15.881c3.76191-1.5715,7.21426,2.0714,8.14286,4.2857a15.40019,15.40019,0,0,1,.4524,4.2381V36.1667a.69093.69093,0,0,0,.6905.6904H40.2442a.69091.69091,0,0,0,.6904-.6904V24.381a15.404,15.404,0,0,1,.4524-4.2381c.9286-2.1905,4.381-5.8334,8.1429-4.2858C52.0061,16.881,54.1251,20.1905,53.0537,22.7857Z" transform="translate(0)"/></g></g></g></svg>