<svg id="Layer_1" data-name="Layer 1" xmlns="http://www.w3.org/2000/svg" viewBox="0 0 47.03525 50"><defs><style>.cls-1{fill:#007fff;}</style></defs><title>Досвід</title><g id="Canvas"><g id="expiriense"><g id="Group"><g id="Vector"><path id="path0_fill" data-name="path0 fill" class="cls-1" d="M46.9167,10.0092a.64313.64313,0,0,0-.4602-.57524c-.023,0-.6213-.20708-.9894-.27611-6.8109-1.4266-12.9314-4.74-16.9811-6.9029C25.6558.73631,24.2522,0,23.3548,0c-.7593,0-2.2319.73631-5.2002,2.255C13.7828,4.50989,7.156,7.89231,1.77174,8.74367c-.46019.069-1.24252.20709-1.24252.20709A.62578.62578,0,0,0,0,9.595C0,34.0773,11.4588,47.4919,22.8026,49.931a3.49,3.49,0,0,0,.4832.069h.115a2.19153,2.19153,0,0,0,.5753-.069C38.173,46.9167,48.2513,29.3833,46.9167,10.0092ZM23.7,48.6424a1.04306,1.04306,0,0,0-.1841.046.47285.47285,0,0,0-.2531,0,1.24057,1.24057,0,0,0-.1841-.023C12.3102,46.3645,1.47262,33.5711,1.31155,10.1703c.2301-.046.4832-.0921.69029-.1151C7.59319,9.18086,14.335,5.72941,18.7759,3.45145a26.7908,26.7908,0,0,1,4.6019-2.11689c.6213,0,2.5081,1.01243,4.5099,2.09388,4.1187,2.20893,10.3314,5.56834,17.3263,7.041.115.023.2761.069.4372.115C46.7326,29.1072,37.1606,45.7892,23.7,48.6424Z" transform="translate(0 0)"/></g><g id="Vector-2" data-name="Vector"><path id="path1_fill" data-name="path1 fill" class="cls-1" d="M41.83088,11.87h-.1611c-5.6143-1.17349-10.6534-3.88863-13.9898-5.68339a18.86056,18.86056,0,0,0-3.9347-1.84077c-.115-.023-.3451-.046-.3451-.046h-.1151a2.00346,2.00346,0,0,0-.4832.092,29.32479,29.32479,0,0,0-3.7966,1.79475c-3.5665,1.84078-9.01978,4.64795-13.46064,5.33824-.36816.046-1.03544.18408-1.03544.18408a.62578.62578,0,0,0-.52922.64427c0,20.27152,9.503,31.38522,18.9139,33.41a2.822,2.822,0,0,0,.4372.046h.1151a2.64556,2.64556,0,0,0,.4832-.046c11.7809-2.485,20.1334-17.0041,19.029-33.06487C42.91238,12.16911,42.52118,11.893,41.83088,11.87ZM23.63028,44.45171a.34252.34252,0,0,1-.1381.023h-.2071a.81311.81311,0,0,0-.1381-.023C14.33428,42.5649,5.42959,32.0725,5.26852,12.8824c.16107-.023.34515-.046.46019-.069,4.648-.7133,10.19327-3.58951,13.89787-5.4763a34.79294,34.79294,0,0,1,3.5665-1.70272c.069-.023.138-.023.2071-.046a.13823.13823,0,0,1,.092.023,19.96708,19.96708,0,0,1,3.5665,1.70272c3.4054,1.84077,8.5366,4.60193,14.335,5.82144a.94811.94811,0,0,0,.2761.023C42.54418,28.4139,34.69788,42.1277,23.63028,44.45171Z" transform="translate(0 0)"/></g><g id="Vector-3" data-name="Vector"><path id="path2_fill" data-name="path2 fill" class="cls-1" d="M21.42269,27.42474a.31479.31479,0,0,1-.34515.34517h-4.0497c-.27612,0-.41417-.0691-.41417-.29915,0-2.62311,5.77542-2.69213,5.77542-6.60378a3.27579,3.27579,0,0,0-3.5665-3.26737c-1.31155,0-3.29038.62126-3.29038,2.09388v.96641h1.47262v-.50622c0-.57524.73631-1.08145,1.74874-1.08145A1.81362,1.81362,0,0,1,20.75541,20.867c0,3.0833-5.77543,2.78417-5.77543,6.97193,0,.9204.18408,1.3116,1.08145,1.3116h5.82145c.73631,0,1.03543-.2992,1.03543-1.0355V26.68843H21.4457v.73631Z" transform="translate(0 0)"/></g><g id="Vector-4" data-name="Vector"><path id="path3_fill" data-name="path3 fill" class="cls-1" d="M28.3738,17.59961c-3.03728,0-4.00368,2.60009-4.00368,5.86746,0,3.29039.98941,5.89044,4.00368,5.89044,3.03728,0,4.02669-2.6,4.02669-5.89044S31.43408,17.59961,28.3738,17.59961Zm0,10.2853c-1.86378,0-2.393-1.9558-2.393-4.44085,0-2.462.52922-4.39484,2.393-4.39484s2.393,1.93281,2.393,4.39484C30.78982,25.92911,30.23758,27.88491,28.3738,27.88491Z" transform="translate(0 0)"/></g></g></g></g></svg>