<svg width="36" height="36" viewBox="0 0 36 36" fill="none" xmlns="http://www.w3.org/2000/svg">
<path d="M18 36C27.9411 36 36 27.9411 36 18C36 8.05887 27.9411 0 18 0C8.05887 0 0 8.05887 0 18C0 27.9411 8.05887 36 18 36Z" fill="#ECE5DD"/>
<path d="M18 36C27.9411 36 36 27.9411 36 18C36 8.05887 27.9411 0 18 0C8.05887 0 0 8.05887 0 18C0 27.9411 8.05887 36 18 36Z" fill="#ECE5DD"/>
<path d="M35.9999 18.0001C35.9999 12.9832 33.9467 8.44651 30.6358 5.18225L20.3477 13.3044L17.2173 14.087L7.0434 7.04356L4.43144 6.17288C4.08381 6.57134 3.75397 6.98563 3.44214 7.41376L25.9562 34.1492C31.9064 31.2122 35.9999 25.0846 35.9999 18.0001Z" fill="#D9CBBD"/>
<path d="M35.9998 17.9999C35.9998 14.0137 34.7031 10.3309 32.5099 7.34814L31.2651 8.32493V30.1658C34.2048 26.962 35.9998 22.6908 35.9998 17.9999Z" fill="#AC2201"/>
<path d="M29.2589 3.95679L18.4447 12.1364C18.1816 12.3354 17.8183 12.3354 17.5552 12.1364L6.74103 3.95679C5.4953 4.95677 4.38563 6.11904 3.44373 7.41159L17.5448 18.4753C17.812 18.685 18.1878 18.685 18.455 18.4753L32.5561 7.41159C31.6143 6.11897 30.5046 4.95684 29.2589 3.95679Z" fill="#CD2900"/>
<path d="M4.73477 30.1658V8.32493L3.48996 7.34814C1.2967 10.3309 0 14.0137 0 17.9999C0 22.6908 1.79501 26.962 4.73477 30.1658Z" fill="#AC2201"/>
</svg>
