<svg xmlns="http://www.w3.org/2000/svg" width="489" height="147" fill="none">
  <path fill="#B70E0C" d="M49.9238 55.4854c-1.5395-.0073-2.9838.7296-3.8855 1.9762-1.5579-2.1412-4.5527-2.6142-6.6934-1.0559a4.7873 4.7873 0 0 0-1.9721 3.8717c0 4.0331 8.6655 10.519 8.6655 10.519s8.6618-6.4932 8.6618-10.519c0-2.6398-2.137-4.7847-4.7763-4.792z"/>
  <path fill="#221F20" d="M89.5526 51.4878a38.293 38.293 0 0 0-6.3269-11.4136l-.0476-.2237c-.077-.3666-.1576-.7516-.2456-1.1256 1.5945-3.7287 2.6942-7.2339 2.6942-7.2999l.2383-2.0458a1.1573 1.1573 0 0 0-.2896-.8873c-.8248-.9716-3.387-1.6169-7.2212-1.8332a45.6329 45.6329 0 0 0-5.1905-7.6446 6.3214 6.3214 0 0 0 4.2301-3.5161c.3299-.7333 1.6935-4.8507-3.64-14.5044L73.204 0l-1.0997.2493c-10.7585 2.4052-12.9395 6.1633-13.2658 6.893a6.4664 6.4664 0 0 0-.3372.9349 32.6858 32.6858 0 0 0-24.9261 0 6.0294 6.0294 0 0 0-.3336-.935c-.3299-.7333-2.5109-4.4877-13.2694-6.8929L18.8725 0l-.5499.9936c-5.3334 9.6537-3.9661 13.7748-3.6399 14.5044a6.3214 6.3214 0 0 0 4.2301 3.5161 45.1108 45.1108 0 0 0-5.1795 7.6592c-3.8379.2017-6.4001.847-7.2212 1.8333a1.1335 1.1335 0 0 0-.2933.8836l.2493 2.0788c0 .0367 1.0997 3.5418 2.6869 7.2706-.088.3666-.165.7516-.2456 1.1292l-.0477.22a38.2029 38.2029 0 0 0-6.3231 11.4137c-5.953 16.9866-1.0777 39.9678 10.8758 51.2235l.5169.484.7074-.084a41.6318 41.6318 0 0 0 12.7306-3.8755 67.2097 67.2097 0 0 0 10.4287 9.5625c-2.5256 1.987-5.2968 4.806-8.233 8.388-3.3796 4.118-5.9272 11.366-5.9272 16.837.0073 3.53.9237 6.999 2.6685 10.068l1.316 2.324 1.3196-2.324c3.3797-5.962 9.9374-9.669 17.111-9.669s13.7277 3.707 17.111 9.669l1.316 2.324 1.3196-2.324a20.4511 20.4511 0 0 0 2.6649-10.068c0-5.5-2.5476-12.73-5.9273-16.84a55.51 55.51 0 0 0-8.068-8.162c3.9185-2.775 7.4962-6.002 10.6669-9.6095a41.1994 41.1994 0 0 0 12.3274 3.6845l.7038.085.5169-.484c11.9498-11.2417 16.8397-34.2229 10.8685-51.2242zm-5.4728 5.8663l.0587-.5866c.0366-.3667.0696-.7113.0953-1.0633.044-.5353.0806-1.0999.11-1.7526 0-.2053 0-.4106.0256-.6159.0257-.781.0403-1.4226.0403-2.0239 0-.8506 0-1.7196-.0586-2.5665v-.242c-.0293-.5316-.0587-1.0303-.0953-1.5032a35.9919 35.9919 0 0 1 2.4559 5.4996c5.4654 15.5971 1.1694 36.8917-9.5708 47.5243-3.4347-.5352-6.7814-1.5325-9.9448-2.9697 9.2996-11.432 15.4578-25.8814 16.8837-39.6965v-.0037zM40.4189 110.605l.1209.077.1687.107c.4508.286.9017.564 1.3562.836.3666.212.7148.421 1.074.627l.5829.319c.6451.366 1.1693.627 1.6568.869l.6342.315.6488-.29c.5022-.22 1.0484-.484 1.6788-.795l.5609-.286a51.368 51.368 0 0 0 1.1693-.624c.3886-.212.6965-.392 1.041-.597l.1906-.11.4546-.268c2.6136 1.914 5.5277 4.792 8.4309 8.33 2.9031 3.538 5.2418 10.127 5.2418 14.915 0 2.134-.3996 4.246-1.1694 6.233-4.2044-5.562-10.9968-8.873-18.2143-8.873-7.2176 0-14.0136 3.3-18.2144 8.873a17.1764 17.1764 0 0 1-1.1693-6.233c0-4.766 2.302-11.333 5.2381-14.915 3.1414-3.809 5.9969-6.673 8.5189-8.51zm11.312-3.384l-.7331.47c-.6598.421-1.3563.836-2.126 1.268l-.132.074c-.1613.091-.3226.183-.4875.271l-.7478.388c-.4179.213-.9091.462-1.4296.708-.4912-.257-.986-.528-1.4003-.759-.2675-.15-.5315-.3-.7991-.458l-.3115-.187-.1467-.088a51.2921 51.2921 0 0 1-2.1773-1.386l-.7331-.499-.0734-.047a62.2278 62.2278 0 0 1-10.2636-9.1188l-1.272-1.4665a78.922 78.922 0 0 1-5.7293-7.4942 66.0469 66.0469 0 0 1-.6525-.9863l-.2273-.3483C15.3755 76.7495 11.292 64.698 10.7825 53.629l-.0183-.3667c-.0257-.7332-.0403-1.3639-.0403-1.9542 0-.8066.0219-1.6499.0623-2.5078 0-.1283 0-.253.0256-.3666.0257-.1137 0-.154.0184-.2347 7.0233 16.3303 33.192 36.0631 34.3173 36.91l.9091.6783.909-.6783c1.1254-.8469 27.2941-20.5797 34.3174-36.91v.2383c0 .0807.022.2493.0256.3667.044.8579.0624 1.7012.0624 2.5078 0 .6893-.0001 1.3786-.0367 1.8992 0 .2237 0 .451-.0293.6746-.0183.385-.044.77-.0697 1.155-1.008 14.3541-7.6061 29.8851-17.6535 41.5407l-1.1217 1.3053-.1063.1503a57.008 57.008 0 0 1-10.6229 9.1841zm-5.6927-75.3157l1.2244-1.6829c5.8612-8.0734 17.155-9.8663 25.2266-4.0037a17.11 17.11 0 0 1 .5792.44c-1.1804.044-2.401.121-3.629.2236-9.6808.814-18.6945 6.1926-18.7678 6.233a11.0121 11.0121 0 0 1-4.6334.9386 11.1584 11.1584 0 0 1-4.6149-.9276c-.088-.0514-9.0981-5.4337-18.7789-6.233-1.2317-.1026-2.4486-.1796-3.629-.2236 7.8298-6.1816 19.1858-4.8471 25.366 2.9845.1503.1906.2969.3849.4399.5792l1.2169 1.6719zm31.5499 10.7354a15.9656 15.9656 0 0 1-7.6978 9.0011 12.0832 12.0832 0 0 1-9.3986.8543c-7.903-2.5665-10.3773-12.6199-10.0254-14.6915.1686-1.0046 1.3196-2.6911 4.0321-4.3997 2.0491-1.2906 5.6634-2.9955 11.2278-3.7874a30.4924 30.4924 0 0 1 4.362-.3373c4.5124 0 6.5981 1.2796 7.1296 2.1412.1137.1686.2163.3483.3043.5316l.1283.297c.0879.2126.1796.4253.2639.6343.6781 1.8919 1.1657 5.1183-.3152 9.7564h-.011zm-2.9582-28.3856c-.7441 1.6462-2.6795 2.3832-4.3291 1.6426l-.0733.165.0257-.1907-.165-.0917c-.3629-.1943-.6854-.4583-.953-.7736-.0843-.1026-.165-.209-.2346-.3226l-.044-.0623c-.1979-.3227-.3409-.6747-.4179-1.045l-.4069-2.0349-1.8071 1.0303a3.6736 3.6736 0 0 1-.5059.2273l-.0733.0257a3.4513 3.4513 0 0 1-.6121.143 3.2287 3.2287 0 0 1-.5645.0293v.1833l-.0403-.1833a3.3396 3.3396 0 0 1-.5389-.077l-.11-.0293a2.6021 2.6021 0 0 1-.5168-.176 3.7115 3.7115 0 0 1-.4985-.2823l-.1173-.0843c-.154-.11-.3006-.231-.4326-.3667l-.0293-.0403a3.0413 3.0413 0 0 1-.3116-.4033c-.0256-.0367-.0513-.0734-.0733-.1137a3.3855 3.3855 0 0 1-.2346-.4766c-.0146-.033-.0256-.0697-.0366-.1063l-.022-.066c-.0367-.1137-.066-.231-.099-.3667 0-.0696-.0293-.1393-.0403-.2126-.088-.605 0-1.2246.2492-1.7856.7771-1.7269 5.6194-3.7654 10.0511-4.9094 2.0711 4.0515 3.7536 9.0305 2.9618 10.7537zM62.0056 15.465c.2786.1247.5682.2274.8614.308h.0367a.2438.2438 0 0 0 .0733.022c.2749.0733.5571.1247.8394.1613H63.9667a6.138 6.138 0 0 0 .8614.0257h.11c.2822-.0147.5608-.0513.8357-.1027.2456.2017.4876.4033.7332.6087a6.3055 6.3055 0 0 0 1.9574 1.8039c1.2389 1.2355 2.3973 2.5518 3.4603 3.9414-8.6618-4.6784-19.4093-2.7352-25.8865 4.6784-6.4917-7.3916-17.2319-9.3128-25.8828-4.6271 1.0667-1.3859 2.2214-2.7058 3.4604-3.9414a6.355 6.355 0 0 0 1.9647-1.8112c.2383-.2054.4802-.4107.7332-.6087.2749.0514.5535.088.8357.1027h.1173c.2859.011.5718.0037.8541-.022l.1539-.022a5.879 5.879 0 0 0 .8358-.1577l.11-.033a6.0272 6.0272 0 0 0 .8614-.3079 6.207 6.207 0 0 0 .6011-.3117l.1247-.077.0586-.0403c.1283-.0807.2566-.165.3666-.253l.1576-.1246.044-.0331c.1063-.0879.2126-.1759.3116-.2676.0989-.0917.1319-.121.1942-.187.0624-.066.1833-.187.2713-.286.088-.099.121-.1393.176-.209a8.1028 8.1028 0 0 0 .2382-.3189l.0293-.044a2.442 2.442 0 0 0 .121-.1724c.0807-.1246.154-.2529.2236-.3666l.0403-.066.066-.121c.1063-.2163.1979-.418.2749-.6159.077-.198.1283-.3667.187-.5903 7.9067-3.6481 17.0194-3.6481 24.9261 0 .0586.2126.1209.4069.1906.5903.0806.2089.1722.4143.2749.6159 0 .0403.044.0807.066.121l.0366.066c.0733.132.1466.2603.2236.3666l.1173.1687.0367.0477c.0769.11.1539.2163.2346.3189l.1796.209c.088.099.1759.1944.2712.286.0953.0917.1247.1283.1907.187.0659.0587.2089.1797.3152.2676l.0476.0367.1503.121c.121.088.2493.1723.3666.253l.0587.0403.1246.077c.2346.1173.4215.22.6268.2933zm-31.2639-5.309c0 .0697-.0257.1394-.0403.2054v.0366c-.0257.1173-.055.2347-.0953.3483l-.022.066-.033.1064a3.4022 3.4022 0 0 1-.2383.4766c-.0256.044-.055.088-.0843.132a3.4104 3.4104 0 0 1-.2969.3886l-.0477.055a3.3236 3.3236 0 0 1-.4178.3667 1.3279 1.3279 0 0 1-.1173.0806c-.154.11-.3226.2053-.4949.286a3.1133 3.1133 0 0 1-.5388.1833l-.0917.022a3.2938 3.2938 0 0 1-.5351.077v.1797l-.055-.1797c-.1943.0037-.3886-.0036-.5792-.0293a3.372 3.372 0 0 1-.5975-.143l-.066-.022a3.3808 3.3808 0 0 1-.5132-.231l-1.8071-1.0303-.4289 2.0349c-.077.3667-.2162.7223-.4142 1.0413l-.044.066a3.2443 3.2443 0 0 1-.2529.3373 3.2252 3.2252 0 0 1-.9347.7589l-.1576.0844-.0587.033c-1.6458.7443-3.585.0146-4.3327-1.6316-.7771-1.7269.909-6.7022 2.9911-10.7793 4.4317 1.144 9.2703 3.1824 10.0474 4.9093a3.249 3.249 0 0 1 .2566 1.7856v-.0147zm-16.18 21.808c.0953-.1907.198-.374.3153-.5536.022-.033 1.9684-3.1532 11.4843-1.7966 5.5681.7956 9.164 2.5005 11.2277 3.7911 2.7236 1.7159 3.8746 3.4025 4.0322 4.3997.3482 2.0716-2.126 12.1323-10.0254 14.6915a12.0955 12.0955 0 0 1-9.384-.858 15.9718 15.9718 0 0 1-7.6977-8.9974c-1.4663-4.6381-.9897-7.8572-.3226-9.7454.0843-.2163.176-.4327.2676-.6453l.1026-.286zm15.3736 22.6109c7.4228-1.2649 9.8971-5.8663 11.8655-9.5327.2199-.4107.4362-.8103.6525-1.1916.6341-1.1366 1.041-2.0202 1.3636-2.7315.7038-1.5399.942-2.0605 2.2323-2.2182 1.2867.1577 1.5286.682 2.2287 2.2182.3263.7113.7331 1.5949 1.3673 2.7315.2163.3666.4289.7809.6488 1.1916 1.9794 3.6848 4.4427 8.2715 11.8656 9.5327.8247.143 1.6605.2164 2.4962.2164 6.928 0 11.2534-5.2137 14.2189-8.7995l.0513-.0623c-2.1737 5.8003-7.7418 13.1991-16.1983 21.5036a199.0945 199.0945 0 0 1-16.6895 14.5448c-5.8173-4.5244-11.3816-9.3678-16.6601-14.5118-8.4675-8.3118-14.0466-15.718-16.2166-21.522 0 .022.033.0404.0476.0587 3.3174 3.9891 8.3136 10.013 16.7262 8.5758v-.0037zM7.7327 53.4053v.297c.6452 14.6658 7.049 30.3654 17.5949 43.154a39.458 39.458 0 0 1-10.348 3.1527C4.2357 89.3768-.0494 68.0821 5.4087 52.4851c.6635-1.8993 1.4846-3.7361 2.4523-5.4997-.033.4693-.066.9643-.0916 1.4959v.2493c-.0403.8653-.0623 1.7343-.0623 2.5665-.022.6453-.0074 1.3089.0256 2.1119v-.0037z"/>
  <path fill="#221F20" d="M27.7764 47.6752h.1173a10.277 10.277 0 0 0 7.6978-3.5125c1.9134-2.1998 2.7418-5.1733 2.1553-7.7875l-.1832-.8066-.176.8066a10.7161 10.7161 0 0 1-3.53 6.0533c-1.6861 1.4189-3.8195 2.1962-6.0226 2.1999a9.3886 9.3886 0 0 1-6.0299-2.2182c-1.8181-1.5656-3.0644-3.6958-3.5336-6.0496l-.176-.803-.1723.8066c-.5901 2.6142.2347 5.5987 2.1518 7.7912 1.9427 2.2255 4.7469 3.5088 7.7014 3.5198zM73.992 35.5693l-.176.8067c-.4655 2.3538-1.7082 4.4877-3.53 6.0496-1.6861 1.4189-3.8195 2.1962-6.0225 2.1999a9.3882 9.3882 0 0 1-6.0299-2.2182c-1.8182-1.5656-3.0645-3.6958-3.5336-6.0497l-.176-.8029-.1796.8029c-.5902 2.6142.2346 5.5987 2.1517 7.7912 1.9428 2.2219 4.7469 3.5015 7.6977 3.5088h.1173a10.277 10.277 0 0 0 7.6978-3.5125c1.9134-2.1998 2.7418-5.1733 2.1553-7.7875l-.1722-.7883zM141.142 47.6154c-1.609.0916-2.782.2676-3.522.5353-.737.2676-1.243.7846-1.511 1.5435-.267.7626-.403 1.9909-.403 3.6885v33.2766c0 1.7012.136 2.9294.403 3.6884.268.7626.77 1.2649 1.511 1.5106.736.2456 1.909.3703 3.522.3703h4.898c2.771 0 4.886-.3923 6.337-1.1733 1.452-.7809 2.515-2.0459 3.186-3.7911.671-1.7452 1.162-4.2714 1.477-7.5822h1.543c-.135 1.3859-.201 3.2192-.201 5.4997 0 2.5482.157 5.4117.469 8.5868-3.043-.1357-8.16-.2017-15.359-.2017-8.585 0-15.069.066-19.453.2017v-1.3419c1.609-.088 2.782-.2677 3.522-.5353.737-.2677 1.243-.781 1.51-1.5436.268-.759.404-1.9909.404-3.6884V53.3827c0-1.6976-.136-2.9295-.404-3.6885-.267-.7589-.769-1.2759-1.51-1.5435-.737-.2677-1.913-.4474-3.522-.5353v-1.342c1.876.1357 4.739.2017 8.584.2017 3.578 0 6.415-.066 8.519-.2017v1.342zM190.074 62.8132c2.794 3.0212 4.194 7.5932 4.194 13.7198 0 6.1266-1.397 10.6914-4.194 13.6869-2.796 2.9954-6.473 4.495-11.033 4.495s-8.24-1.4996-11.034-4.495c-2.793-2.9955-4.193-7.5603-4.193-13.6869s1.397-10.7023 4.193-13.7198c2.794-3.0175 6.474-4.528 11.034-4.528 4.56 0 8.24 1.5105 11.033 4.528zm-17.404.9386c-1.565 2.7498-2.346 7.0102-2.346 12.7812s.781 10.0204 2.346 12.7482c1.565 2.7279 3.688 4.0918 6.371 4.0918 2.683 0 4.805-1.3639 6.371-4.0918 1.565-2.7278 2.346-6.9772 2.346-12.7482 0-5.771-.785-10.0314-2.346-12.7812-1.566-2.7498-3.688-4.1247-6.371-4.1247-2.683 0-4.809 1.3749-6.371 4.1247zM209.359 87.5362c0 1.8332.378 3.0981 1.14 3.7911.759.6929 2.078 1.0412 3.959 1.0412v1.4079c-4.117-.1796-6.818-.2676-8.116-.2676-1.297 0-4.003.0917-8.115.2676v-1.4079c1.876 0 3.196-.3446 3.958-1.0412.759-.693 1.14-1.9579 1.14-3.7911V49.2256c0-2.0569-.381-3.5565-1.14-4.4951-.762-.9386-2.078-1.4079-3.958-1.4079v-1.4079c1.385.1357 2.771.2016 4.16.2016 2.819 0 5.143-.3116 6.976-.9386v46.3585h-.004zM220.598 92.1345c-1.363-1.4079-2.045-3.3658-2.045-5.87 0-2.0129.546-3.6664 1.642-4.9644 1.096-1.2979 2.394-2.3245 3.889-3.0871 1.499-.759 3.475-1.5656 5.935-2.4162 2.503-.8506 4.358-1.6315 5.568-2.3502 1.206-.7149 1.811-1.6755 1.811-2.8855v-4.1614c0-2.5921-.55-4.3704-1.643-5.3346-1.096-.9607-2.628-1.441-4.596-1.441-3.131 0-5.345.8067-6.642 2.4162.894.2237 1.642.693 2.247 1.4079.605.715.905 1.6096.905 2.6839 0 1.1182-.359 2.0019-1.074 2.6508-.715.649-1.631.9716-2.749.9716-1.254 0-2.192-.3923-2.819-1.1732-.627-.781-.938-1.7343-.938-2.8525 0-1.0743.256-1.9689.769-2.6839.514-.7149 1.287-1.4299 2.313-2.1485 1.074-.759 2.438-1.3859 4.091-1.8772 1.653-.4913 3.464-.737 5.433-.737 3.489 0 6.125.8286 7.914 2.4822 1.118 1.0303 1.865 2.2695 2.247 3.7251.377 1.4556.568 3.3658.568 5.738v18.6512c0 1.1182.157 1.9249.469 2.4162.312.4913.851.7369 1.609.7369.535 0 1.041-.121 1.511-.3703.469-.2456.971-.594 1.51-1.0413l.737 1.1403c-1.162.8946-2.16 1.5326-2.984 1.9102-.829.3813-1.866.572-3.12.572-2.148 0-3.643-.5353-4.494-1.6096-.85-1.0743-1.275-2.5262-1.275-4.3594-1.342 2.2365-2.885 3.7911-4.63 4.6637-1.745.8726-3.713 1.3089-5.902 1.3089-2.804 0-4.893-.7039-6.257-2.1118zm16.803-5.672V73.311c-.403.6269-.96 1.1402-1.679 1.5435-.714.4033-1.81.9386-3.288 1.6096-1.7.715-3.075 1.3969-4.123 2.0459-1.052.6489-1.958 1.5325-2.717 2.6508-.762 1.1183-1.14 2.5482-1.14 4.2934 0 2.0129.492 3.5345 1.478 4.5611.982 1.0302 2.28 1.5435 3.889 1.5435 2.951.0037 5.476-1.6939 7.58-5.0963zM305.614 92.4365v1.3419c-1.789-.1357-4.182-.2017-7.177-.2017-3.845 0-6.708.066-8.585.2017v-1.3419c1.697-.088 2.918-.3007 3.655-.638.736-.3373 1.107-.9496 1.107-1.8442 0-.759-.268-1.8112-.807-3.1531l-4.091-11.003h-16.231l-2.749 7.1129c-.895 2.4162-1.342 4.2494-1.342 5.4996 0 1.3859.48 2.3942 1.441 3.0212.96.6269 2.426.9606 4.395 1.0046v1.3419c-2.548-.1357-5.121-.2017-7.713-.2017-2.012 0-3.687.066-5.029.2017v-1.3419c2.236-.5353 4.003-2.4822 5.301-5.837l15.762-40.6571h1.074l16.367 42.2007c1.066 2.7718 2.61 4.2054 4.622 4.2934zm-16.433-17.9802l-7.514-20.0591-7.647 20.0591h15.161zM332.409 59.8297c1.14 1.0303 1.712 2.2805 1.712 3.7581 0 1.1623-.348 2.1595-1.041 2.9845-.693.8286-1.62 1.2392-2.782 1.2392-.986 0-1.822-.3116-2.515-.9386-.692-.6269-1.041-1.4775-1.041-2.5481 0-1.4776.759-2.6839 2.28-3.6225-.311-.4473-.784-.6709-1.407-.6709-1.745 0-3.332.6819-4.762 2.0458-1.433 1.3639-2.547 3.0322-3.354 4.9974-.806 1.9689-1.206 3.8241-1.206 5.5693V86.866c0 2.0569.594 3.4905 1.778 4.2934 1.184.8067 2.962 1.2063 5.333 1.2063v1.4079l-1.609-.066c-4.56-.1356-7.467-.2016-8.72-.2016-1.162 0-3.802.0916-7.914.2676v-1.4079c1.876 0 3.196-.3446 3.959-1.0413.758-.6929 1.14-1.9578 1.14-3.7911v-20.994c0-2.0569-.382-3.5565-1.14-4.4951-.763-.9386-2.079-1.4079-3.959-1.4079v-1.4079c1.429.1357 2.818.2017 4.156.2017 2.819 0 5.143-.3117 6.976-.9386v8.3851c.807-2.2365 2.089-4.2274 3.856-5.9726 1.767-1.7453 3.725-2.6179 5.869-2.6179 1.789 0 3.251.5133 4.391 1.5436zM347.805 59.2898h9.927v1.3419h-9.927v25.9658c0 2.0128.37 3.4684 1.107 4.3593.737.8946 1.8 1.342 3.186 1.342 1.385 0 2.569-.5573 3.555-1.6793.983-1.1182 1.811-2.9514 2.482-5.4996l1.341.3373c-1.118 6.1706-4.024 9.2577-8.72 9.2577-1.521 0-2.775-.1796-3.757-.5353-.983-.3593-1.855-.9166-2.618-1.6755-.982-.9826-1.667-2.1926-2.045-3.6225-.381-1.4299-.572-3.3548-.572-5.7709V60.6354h-6.44v-1.3419h6.44v-10.266c2.504-.088 4.516-.4033 6.037-.9386v11.2009h.004zM371.415 87.5381c0 1.8332.381 3.0981 1.14 3.7911.759.693 2.079 1.0413 3.959 1.0413v1.4079c-4.116-.1797-6.818-.2677-8.116-.2677-1.297 0-4.002.0917-8.115.2677v-1.4079c1.877 0 3.196-.3447 3.959-1.0413.758-.693 1.14-1.9579 1.14-3.7911V49.2275c0-2.0569-.382-3.5564-1.14-4.495-.763-.9386-2.079-1.4079-3.959-1.4079v-1.408c1.385.1357 2.771.2017 4.157.2017 2.818 0 5.142-.3117 6.975-.9386v46.3584zM382.65 92.1345c-1.364-1.4079-2.046-3.3658-2.046-5.87 0-2.0129.547-3.6664 1.643-4.9644 1.096-1.2979 2.393-2.3245 3.889-3.0871 1.499-.759 3.475-1.5656 5.935-2.4162 2.503-.8506 4.358-1.6315 5.568-2.3502 1.206-.7149 1.81-1.6755 1.81-2.8855v-4.1614c0-2.5921-.549-4.3704-1.642-5.3346-1.096-.9607-2.628-1.441-4.596-1.441-3.131 0-5.345.8067-6.643 2.4162.895.2237 1.643.693 2.247 1.4079.605.715.906 1.6096.906 2.6839 0 1.1182-.359 2.0019-1.074 2.6508-.715.649-1.631.9716-2.749.9716-1.254 0-2.192-.3923-2.819-1.1732-.627-.781-.939-1.7343-.939-2.8525 0-1.0743.257-1.9689.77-2.6839.513-.7149 1.287-1.4299 2.313-2.1485 1.074-.759 2.438-1.3859 4.091-1.8772 1.653-.4913 3.464-.737 5.432-.737 3.49 0 6.126.8286 7.914 2.4822 1.118 1.0303 1.866 2.2695 2.247 3.7251.378 1.4556.569 3.3658.569 5.738v18.6512c0 1.1182.157 1.9249.469 2.4162.311.4913.85.7369 1.609.7369.535 0 1.041-.121 1.51-.3703.469-.2456.972-.594 1.51-1.0413l.737 1.1403c-1.162.8946-2.159 1.5326-2.984 1.9102-.828.3813-1.865.572-3.119.572-2.148 0-3.644-.5353-4.494-1.6096-.85-1.0743-1.276-2.5262-1.276-4.3594-1.341 2.2365-2.884 3.7911-4.629 4.6637-1.745.8726-3.714 1.3089-5.902 1.3089-2.804 0-4.893-.7039-6.257-2.1118zm16.803-5.672V73.311c-.403.6269-.96 1.1402-1.679 1.5435-.715.4033-1.811.9386-3.288 1.6096-1.701.715-3.075 1.3969-4.124 2.0459-1.052.6489-1.957 1.5325-2.716 2.6508-.762 1.1183-1.14 2.5482-1.14 4.2934 0 2.0129.491 3.5345 1.477 4.5611.983 1.0302 2.28 1.5435 3.89 1.5435 2.95.0037 5.476-1.6939 7.58-5.0963zM442.986 60.8346c.851.8946 1.452 2.0128 1.811 3.3548.359 1.3419.535 3.1531.535 5.4336v17.9142c0 1.8332.381 3.0982 1.14 3.7911.759.693 2.078 1.0413 3.959 1.0413v1.4079c-4.113-.1797-6.796-.2677-8.05-.2677-1.253 0-3.757.0917-7.514.2677v-1.4079c1.653 0 2.804-.3447 3.453-1.0413.649-.6929.971-1.9579.971-3.7911V68.1491c0-2.5042-.359-4.4181-1.074-5.738-.715-1.3199-2.17-1.9798-4.358-1.9798-1.833 0-3.468.5353-4.898 1.6095-1.433 1.0743-2.536 2.5409-3.321 4.3961-.784 1.8552-1.173 3.9267-1.173 6.2073v14.893c0 1.8332.323 3.0982.972 3.7911.649.693 1.8 1.0413 3.453 1.0413v1.4079c-3.757-.1797-6.261-.2677-7.515-.2677-1.253 0-3.937.0917-8.049.2677v-1.4079c1.876 0 3.196-.3447 3.959-1.0413.758-.6929 1.14-1.9579 1.14-3.7911V66.5395c0-2.0568-.382-3.5564-1.14-4.495-.763-.9386-2.079-1.4079-3.959-1.4079v-1.4079c1.429.1356 2.818.2016 4.16.2016 2.819 0 5.143-.3116 6.976-.9386v7.9158c1.118-2.8634 2.672-4.9313 4.662-6.2072 1.991-1.2759 4.238-1.9102 6.741-1.9102 3.138-.0037 5.506.8469 7.119 2.5445zM485.041 90.9577c.759.9386 2.079 1.4079 3.959 1.4079v1.4079a42.7313 42.7313 0 0 0-4.16-.2016c-2.819 0-5.143.3116-6.976.9386v-5.9727c-.807 2.0129-2.012 3.5455-3.622 4.5978-1.609 1.0522-3.577 1.5765-5.901 1.5765-4.293 0-7.658-1.5435-10.095-4.6307-2.438-3.0871-3.633-7.6042-3.589-13.5511 0-3.8901.682-7.2119 2.045-9.9617 1.364-2.7499 3.197-4.8177 5.499-6.2073 2.302-1.3859 4.838-2.0789 7.613-2.0789 1.697 0 3.255.3263 4.663.9716 1.408.649 2.537 1.6426 3.387 2.9845V49.2226c0-2.0568-.381-3.5564-1.14-4.495-.763-.9386-2.078-1.4079-3.959-1.4079v-1.4079c1.43.1356 2.819.2016 4.157.2016 2.819 0 5.143-.3116 6.976-.9386v45.2879c.003 2.0605.381 3.5564 1.143 4.495zm-10.062-.2676c1.386-1.342 2.35-3.2412 2.885-5.7014v-19.993c-1.206-3.4428-3.713-5.1661-7.515-5.1661-2.774 0-5.007 1.419-6.708 4.2604-1.7 2.8415-2.525 6.9883-2.481 12.4439-.044 5.3677.715 9.4044 2.28 12.1103 1.565 2.7058 3.845 4.0587 6.843 4.0587 1.745 0 3.31-.6709 4.696-2.0128z"/>
</svg>
