<svg width="489" height="147" viewBox="0 0 489 147" fill="none" xmlns="http://www.w3.org/2000/svg">
<path d="M49.9238 55.4854C48.3843 55.4781 46.94 56.215 46.0383 57.4616C44.4804 55.3204 41.4856 54.8474 39.3449 56.4057C38.1059 57.3076 37.3728 58.7449 37.3728 60.2774C37.3728 64.3105 46.0383 70.7964 46.0383 70.7964C46.0383 70.7964 54.7001 64.3032 54.7001 60.2774C54.7001 57.6376 52.5631 55.4927 49.9238 55.4854Z" fill="#B70E0C"/>
<path d="M89.5526 51.4878C88.112 47.3484 85.9713 43.4876 83.2257 40.0742L83.1781 39.8505C83.1011 39.4839 83.0205 39.0989 82.9325 38.7249C84.527 34.9962 85.6267 31.491 85.6267 31.425L85.865 29.3792C85.898 29.0565 85.7917 28.7339 85.5754 28.4919C84.7506 27.5203 82.1884 26.875 78.3542 26.6587C76.8879 23.9418 75.1468 21.379 73.1637 19.0141C75.0368 18.5485 76.5947 17.2543 77.3938 15.498C77.7237 14.7647 79.0873 10.6473 73.7538 0.993602L73.204 0L72.1043 0.249315C61.3458 2.6545 59.1648 6.4126 58.8385 7.14222C58.7029 7.44287 58.5893 7.75818 58.5013 8.07716C50.5176 4.7847 41.5589 4.7847 33.5752 8.07716C33.4909 7.75818 33.3773 7.44287 33.2416 7.14222C32.9117 6.40893 30.7307 2.6545 19.9722 0.249315L18.8725 0L18.3226 0.993602C12.9892 10.6473 14.3565 14.7684 14.6827 15.498C15.4818 17.2543 17.0397 18.5485 18.9128 19.0141C16.9297 21.3827 15.1922 23.9492 13.7333 26.6733C9.89543 26.875 7.33318 27.5203 6.51209 28.5066C6.29215 28.7449 6.18584 29.0675 6.21883 29.3902L6.46809 31.469C6.46809 31.5057 7.56778 35.0108 9.15498 38.7396C9.06701 39.1062 8.99003 39.4912 8.90938 39.8688L8.86173 40.0888C6.11619 43.5023 3.97548 47.363 2.53857 51.5025C-3.41436 68.4891 1.46089 91.4703 13.4144 102.726L13.9313 103.21L14.6387 103.126C19.0631 102.525 23.3628 101.216 27.3693 99.2505C30.4998 102.796 33.9931 106 37.798 108.813C35.2724 110.8 32.5012 113.619 29.565 117.201C26.1854 121.319 23.6378 128.567 23.6378 134.038C23.6451 137.568 24.5615 141.037 26.3063 144.106L27.6223 146.43L28.9419 144.106C32.3216 138.144 38.8793 134.437 46.0529 134.437C53.2265 134.437 59.7806 138.144 63.1639 144.106L64.4799 146.43L65.7995 144.106C67.5406 141.037 68.4607 137.568 68.4644 134.038C68.4644 128.538 65.9168 121.308 62.5371 117.198C60.1361 114.206 57.4346 111.471 54.4691 109.036C58.3876 106.261 61.9653 103.034 65.136 99.4265C69.0289 101.293 73.1857 102.536 77.4634 103.111L78.1672 103.196L78.6841 102.712C90.6339 91.4703 95.5238 68.4891 89.5526 51.4878ZM84.0798 57.3541L84.1385 56.7675C84.1751 56.4008 84.2081 56.0562 84.2338 55.7042C84.2778 55.1689 84.3144 54.6043 84.3438 53.9516C84.3438 53.7463 84.3438 53.541 84.3694 53.3357C84.3951 52.5547 84.4097 51.9131 84.4097 51.3118C84.4097 50.4612 84.4097 49.5922 84.3511 48.7453V48.6133V48.5033C84.3218 47.9717 84.2924 47.473 84.2558 47.0001C85.2272 48.7636 86.0483 50.6005 86.7117 52.4997C92.1771 68.0968 87.8811 89.3914 77.1409 100.024C73.7062 99.4888 70.3595 98.4915 67.1961 97.0543C76.4957 85.6223 82.6539 71.1729 84.0798 57.3578V57.3541ZM40.4189 110.605L40.5398 110.682L40.7085 110.789C41.1593 111.075 41.6102 111.353 42.0647 111.625C42.4313 111.837 42.7795 112.046 43.1387 112.252L43.7216 112.571C44.3667 112.937 44.8909 113.198 45.3784 113.44L46.0126 113.755L46.6614 113.465C47.1636 113.245 47.7098 112.981 48.3402 112.67L48.9011 112.384C49.2933 112.182 49.6818 111.973 50.0704 111.76C50.459 111.548 50.7669 111.368 51.1114 111.163L51.302 111.053L51.7566 110.785C54.3702 112.699 57.2843 115.577 60.1875 119.115C63.0906 122.653 65.4293 129.242 65.4293 134.03C65.4293 136.164 65.0297 138.276 64.2599 140.263C60.0555 134.701 53.2631 131.39 46.0456 131.39C38.828 131.39 32.032 134.69 27.8312 140.263C27.0578 138.276 26.6619 136.164 26.6619 134.03C26.6619 129.264 28.9639 122.697 31.9 119.115C35.0414 115.306 37.8969 112.442 40.4189 110.605ZM51.7309 107.221L50.9978 107.691C50.338 108.112 49.6415 108.527 48.8718 108.959L48.7398 109.033C48.5785 109.124 48.4172 109.216 48.2523 109.304L47.5045 109.692C47.0866 109.905 46.5954 110.154 46.0749 110.4C45.5837 110.143 45.0889 109.872 44.6746 109.641C44.4071 109.491 44.1431 109.341 43.8755 109.183L43.564 108.996L43.4173 108.908C42.6439 108.442 41.9328 107.988 41.24 107.522L40.5069 107.023L40.4335 106.976C36.6873 104.325 33.2453 101.267 30.1699 97.8572L28.8979 96.3907C26.8415 94.0111 24.928 91.507 23.1686 88.8965C22.9486 88.5701 22.7324 88.2438 22.5161 87.9102L22.2888 87.5619C15.3755 76.7495 11.292 64.698 10.7825 53.629L10.7642 53.2623C10.7385 52.5291 10.7239 51.8984 10.7239 51.3081C10.7239 50.5015 10.7458 49.6582 10.7862 48.8003C10.7862 48.672 10.7862 48.5473 10.8118 48.4337C10.8375 48.32 10.8118 48.2797 10.8302 48.199C17.8535 64.5293 44.0222 84.2621 45.1475 85.109L46.0566 85.7873L46.9656 85.109C48.091 84.2621 74.2597 64.5293 81.283 48.199C81.283 48.2797 81.283 48.3566 81.283 48.4373C81.283 48.518 81.305 48.6866 81.3086 48.804C81.3526 49.6619 81.371 50.5052 81.371 51.3118C81.371 52.0011 81.3709 52.6904 81.3343 53.211C81.3343 53.4347 81.3343 53.662 81.305 53.8856C81.2867 54.2706 81.261 54.6556 81.2353 55.0406C80.2273 69.3947 73.6292 84.9257 63.5818 96.5813L62.4601 97.8866L62.3538 98.0369C59.2051 101.524 55.6348 104.611 51.7309 107.221ZM46.0382 31.9053L47.2626 30.2224C53.1238 22.149 64.4176 20.3561 72.4892 26.2187C72.6871 26.3617 72.8778 26.5083 73.0684 26.6587C71.888 26.7027 70.6674 26.7797 69.4394 26.8823C59.7586 27.6963 50.7449 33.0749 50.6716 33.1153C49.2127 33.7606 47.6328 34.0795 46.0382 34.0539C44.451 34.0759 42.8785 33.7606 41.4233 33.1263C41.3353 33.0749 32.3252 27.6926 22.6444 26.8933C21.4127 26.7907 20.1958 26.7137 19.0154 26.6697C26.8452 20.4881 38.2012 21.8226 44.3814 29.6542C44.5317 29.8448 44.6783 30.0391 44.8213 30.2334L46.0382 31.9053ZM77.5881 42.6407C76.2721 46.5161 73.5156 49.7389 69.8903 51.6418C67.0018 53.189 63.6111 53.497 60.4917 52.4961C52.5887 49.9296 50.1144 39.8762 50.4663 37.8046C50.6349 36.8 51.7859 35.1135 54.4984 33.4049C56.5475 32.1143 60.1618 30.4094 65.7262 29.6175C67.1704 29.4012 68.6293 29.2875 70.0882 29.2802C74.6006 29.2802 76.6863 30.5598 77.2178 31.4214C77.3315 31.59 77.4341 31.7697 77.5221 31.953L77.6504 32.25C77.7383 32.4626 77.83 32.6753 77.9143 32.8843C78.5924 34.7762 79.08 38.0026 77.5991 42.6407H77.5881ZM74.6299 14.2551C73.8858 15.9013 71.9504 16.6383 70.3008 15.8977L70.2275 16.0627L70.2532 15.872L70.0882 15.7803C69.7253 15.586 69.4028 15.322 69.1352 15.0067C69.0509 14.9041 68.9702 14.7977 68.9006 14.6841L68.8566 14.6218C68.6587 14.2991 68.5157 13.9471 68.4387 13.5768L68.0318 11.5419L66.2247 12.5722C66.0634 12.6602 65.8911 12.7372 65.7188 12.7995L65.6455 12.8252C65.4476 12.8912 65.2423 12.9389 65.0334 12.9682C64.8464 12.9939 64.6558 13.0049 64.4689 12.9975V13.1808L64.4286 12.9975C64.2489 12.9865 64.0657 12.9609 63.8897 12.9205L63.7797 12.8912C63.6038 12.8509 63.4278 12.7922 63.2629 12.7152C63.0906 12.6345 62.922 12.5392 62.7644 12.4329L62.6471 12.3486C62.4931 12.2386 62.3465 12.1176 62.2145 11.9819L62.1852 11.9416C62.0716 11.8169 61.9653 11.6813 61.8736 11.5383C61.848 11.5016 61.8223 11.4649 61.8003 11.4246C61.7087 11.2706 61.6317 11.113 61.5657 10.948C61.5511 10.915 61.5401 10.8783 61.5291 10.8417L61.5071 10.7757C61.4704 10.662 61.4411 10.5447 61.4081 10.409C61.4081 10.3394 61.3788 10.2697 61.3678 10.1964C61.2798 9.5914 61.3678 8.97177 61.617 8.4108C62.3941 6.68391 67.2364 4.64537 71.6681 3.50144C73.7392 7.55286 75.4217 12.5319 74.6299 14.2551ZM62.0056 15.465C62.2842 15.5897 62.5738 15.6924 62.867 15.773H62.9037C62.9257 15.784 62.9513 15.7913 62.977 15.795C63.2519 15.8683 63.5341 15.9197 63.8164 15.9563H63.8531H63.9667C64.2526 15.9857 64.5422 15.993 64.8281 15.982H64.9381C65.2203 15.9673 65.4989 15.9307 65.7738 15.8793C66.0194 16.081 66.2614 16.2826 66.507 16.488C67.0238 17.2213 67.6909 17.8372 68.4644 18.2919C69.7033 19.5274 70.8617 20.8437 71.9247 22.2333C63.2629 17.5549 52.5154 19.4981 46.0382 26.9117C39.5465 19.5201 28.8063 17.5989 20.1554 22.2846C21.2221 20.8987 22.3768 19.5788 23.6158 18.3432C24.3929 17.8849 25.06 17.2689 25.5805 16.532C25.8188 16.3266 26.0607 16.1213 26.3137 15.9233C26.5886 15.9747 26.8672 16.0113 27.1494 16.026H27.2667C27.5526 16.037 27.8385 16.0297 28.1208 16.004L28.2747 15.982C28.557 15.949 28.8356 15.8977 29.1105 15.8243L29.2205 15.7913C29.5137 15.7107 29.8033 15.608 30.0819 15.4834C30.2872 15.3917 30.4888 15.2854 30.683 15.1717L30.8077 15.0947L30.8663 15.0544C30.9946 14.9737 31.1229 14.8894 31.2329 14.8014L31.3905 14.6768L31.4345 14.6437C31.5408 14.5558 31.6471 14.4678 31.7461 14.3761C31.845 14.2844 31.878 14.2551 31.9403 14.1891C32.0027 14.1231 32.1236 14.0021 32.2116 13.9031C32.2996 13.8041 32.3326 13.7638 32.3876 13.6941C32.4425 13.6245 32.5488 13.4852 32.6258 13.3752L32.6551 13.3312C32.6991 13.2725 32.7395 13.2175 32.7761 13.1588C32.8568 13.0342 32.9301 12.9059 32.9997 12.7922L33.04 12.7262L33.106 12.6052C33.2123 12.3889 33.3039 12.1872 33.3809 11.9893C33.4579 11.7913 33.5092 11.6226 33.5679 11.399C41.4746 7.75085 50.5873 7.75085 58.494 11.399C58.5526 11.6116 58.6149 11.8059 58.6846 11.9893C58.7652 12.1982 58.8568 12.4036 58.9595 12.6052C58.9595 12.6455 59.0035 12.6859 59.0255 12.7262L59.0621 12.7922C59.1354 12.9242 59.2087 13.0525 59.2857 13.1588L59.403 13.3275L59.4397 13.3752C59.5166 13.4852 59.5936 13.5915 59.6743 13.6941L59.8539 13.9031C59.9419 14.0021 60.0298 14.0975 60.1251 14.1891C60.2204 14.2808 60.2498 14.3174 60.3158 14.3761C60.3817 14.4348 60.5247 14.5558 60.631 14.6437L60.6786 14.6804L60.8289 14.8014C60.9499 14.8894 61.0782 14.9737 61.1955 15.0544L61.2542 15.0947L61.3788 15.1717C61.6134 15.289 61.8003 15.3917 62.0056 15.465ZM30.7417 10.156C30.7417 10.2257 30.716 10.2954 30.7014 10.3614V10.398C30.6757 10.5153 30.6464 10.6327 30.6061 10.7463L30.5841 10.8123L30.5511 10.9187C30.4851 11.0836 30.4045 11.2413 30.3128 11.3953C30.2872 11.4393 30.2578 11.4833 30.2285 11.5273C30.1405 11.6629 30.0379 11.7949 29.9316 11.9159L29.8839 11.9709C29.7556 12.1029 29.6164 12.2276 29.4661 12.3376C29.4294 12.3669 29.3891 12.3926 29.3488 12.4182C29.1948 12.5282 29.0262 12.6235 28.8539 12.7042C28.6816 12.7812 28.4983 12.8435 28.3151 12.8875L28.2234 12.9095C28.0475 12.9499 27.8679 12.9755 27.6883 12.9865V13.1662L27.6333 12.9865C27.439 12.9902 27.2447 12.9829 27.0541 12.9572C26.8525 12.9279 26.6509 12.8802 26.4566 12.8142L26.3906 12.7922C26.2147 12.7299 26.0424 12.6529 25.8774 12.5612L24.0703 11.5309L23.6414 13.5658C23.5644 13.9325 23.4252 14.2881 23.2272 14.6071L23.1832 14.6731C23.1062 14.7904 23.0219 14.9041 22.9303 15.0104C22.67 15.3184 22.3511 15.5787 21.9956 15.7693L21.838 15.8537L21.7793 15.8867C20.1335 16.631 18.1943 15.9013 17.4466 14.2551C16.6695 12.5282 18.3556 7.55286 20.4377 3.47578C24.8694 4.61971 29.708 6.65825 30.4851 8.38514C30.738 8.94611 30.826 9.56207 30.7417 10.1707V10.156ZM14.5617 31.964C14.657 31.7733 14.7597 31.59 14.877 31.4104C14.899 31.3774 16.8454 28.2572 26.3613 29.6138C31.9294 30.4094 35.5253 32.1143 37.589 33.4049C40.3126 35.1208 41.4636 36.8074 41.6212 37.8046C41.9694 39.8762 39.4952 49.9369 31.5958 52.4961C28.48 53.4897 25.0967 53.1817 22.2118 51.6381C18.5866 49.7352 15.8337 46.5161 14.5141 42.6407C13.0478 38.0026 13.5244 34.7835 14.1915 32.8953C14.2758 32.679 14.3675 32.4626 14.4591 32.25L14.5617 31.964ZM29.9353 54.5749C37.3581 53.31 39.8324 48.7086 41.8008 45.0422C42.0207 44.6315 42.237 44.2319 42.4533 43.8506C43.0874 42.714 43.4943 41.8304 43.8169 41.1191C44.5207 39.5792 44.7589 39.0586 46.0492 38.9009C47.3359 39.0586 47.5778 39.5829 48.2779 41.1191C48.6042 41.8304 49.011 42.714 49.6452 43.8506C49.8615 44.2172 50.0741 44.6315 50.294 45.0422C52.2734 48.727 54.7367 53.3137 62.1596 54.5749C62.9843 54.7179 63.8201 54.7913 64.6558 54.7913C71.5838 54.7913 75.9092 49.5776 78.8747 45.9918L78.926 45.9295C76.7523 51.7298 71.1842 59.1286 62.7277 67.4331C57.4383 72.5881 51.8665 77.4425 46.0382 81.9779C40.2209 77.4535 34.6566 72.6101 29.3781 67.4661C20.9106 59.1543 15.3315 51.7481 13.1615 45.9441C13.1615 45.9661 13.1945 45.9845 13.2091 46.0028C16.5265 49.9919 21.5227 56.0158 29.9353 54.5786V54.5749ZM7.73273 53.4053V53.7023C8.37787 68.3681 14.7817 84.0677 25.3276 96.8563C22.0396 98.3779 18.5572 99.4375 14.9796 100.009C4.23574 89.3768 -0.0493383 68.0821 5.40874 52.4851C6.07221 50.5858 6.89331 48.749 7.86103 46.9854C7.82804 47.4547 7.79505 47.9497 7.76939 48.4813V48.595C7.76939 48.6426 7.76939 48.6866 7.76939 48.7306C7.72906 49.5959 7.70707 50.4649 7.70707 51.2971C7.68507 51.9424 7.69974 52.606 7.73273 53.409V53.4053Z" fill="#221F20"/>
<path d="M27.7764 47.6752H27.8937C30.8445 47.6642 33.6487 46.3846 35.5915 44.1627C37.5049 41.9629 38.3333 38.9894 37.7468 36.3752L37.5636 35.5686L37.3876 36.3752C36.9221 38.7327 35.6794 40.8629 33.8576 42.4285C32.1715 43.8474 30.0381 44.6247 27.835 44.6284C25.6284 44.621 23.4913 43.8364 21.8051 42.4102C19.987 40.8446 18.7407 38.7144 18.2715 36.3606L18.0955 35.5576L17.9232 36.3642C17.3331 38.9784 18.1579 41.9629 20.075 44.1554C22.0177 46.3809 24.8219 47.6642 27.7764 47.6752Z" fill="#221F20"/>
<path d="M73.992 35.5693L73.816 36.376C73.3505 38.7298 72.1078 40.8637 70.286 42.4256C68.5999 43.8445 66.4665 44.6218 64.2635 44.6255C62.0568 44.6181 59.9197 43.8335 58.2336 42.4073C56.4154 40.8417 55.1691 38.7115 54.7 36.3576L54.524 35.5547L54.3444 36.3576C53.7542 38.9718 54.579 41.9563 56.4961 44.1488C58.4389 46.3707 61.243 47.6503 64.1938 47.6576H64.3111C67.2619 47.6466 70.0661 46.367 72.0089 44.1451C73.9223 41.9453 74.7507 38.9718 74.1642 36.3576L73.992 35.5693Z" fill="#221F20"/>
<path d="M141.142 47.6154C139.533 47.707 138.36 47.883 137.62 48.1507C136.883 48.4183 136.377 48.9353 136.109 49.6942C135.842 50.4568 135.706 51.6851 135.706 53.3827V86.6593C135.706 88.3605 135.842 89.5887 136.109 90.3477C136.377 91.1103 136.879 91.6126 137.62 91.8583C138.356 92.1039 139.529 92.2286 141.142 92.2286H146.04C148.811 92.2286 150.926 91.8363 152.377 91.0553C153.829 90.2744 154.892 89.0094 155.563 87.2642C156.234 85.519 156.725 82.9928 157.04 79.682H158.583C158.448 81.0679 158.382 82.9012 158.382 85.1817C158.382 87.7299 158.539 90.5934 158.851 93.7685C155.808 93.6328 150.691 93.5668 143.492 93.5668C134.907 93.5668 128.423 93.6328 124.039 93.7685V92.4266C125.648 92.3386 126.821 92.1589 127.561 91.8913C128.298 91.6236 128.804 91.1103 129.071 90.3477C129.339 89.5887 129.475 88.3568 129.475 86.6593V53.3827C129.475 51.6851 129.339 50.4532 129.071 49.6942C128.804 48.9353 128.302 48.4183 127.561 48.1507C126.824 47.883 125.648 47.7033 124.039 47.6154V46.2734C125.915 46.4091 128.778 46.4751 132.623 46.4751C136.201 46.4751 139.038 46.4091 141.142 46.2734V47.6154Z" fill="#221F20"/>
<path d="M190.074 62.8132C192.868 65.8344 194.268 70.4064 194.268 76.533C194.268 82.6596 192.871 87.2244 190.074 90.2199C187.278 93.2153 183.601 94.7149 179.041 94.7149C174.481 94.7149 170.801 93.2153 168.007 90.2199C165.214 87.2244 163.814 82.6596 163.814 76.533C163.814 70.4064 165.211 65.8307 168.007 62.8132C170.801 59.7957 174.481 58.2852 179.041 58.2852C183.601 58.2852 187.281 59.7957 190.074 62.8132ZM172.67 63.7518C171.105 66.5016 170.324 70.762 170.324 76.533C170.324 82.304 171.105 86.5534 172.67 89.2812C174.235 92.0091 176.358 93.373 179.041 93.373C181.724 93.373 183.846 92.0091 185.412 89.2812C186.977 86.5534 187.758 82.304 187.758 76.533C187.758 70.762 186.973 66.5016 185.412 63.7518C183.846 61.002 181.724 59.6271 179.041 59.6271C176.358 59.6271 174.232 61.002 172.67 63.7518Z" fill="#221F20"/>
<path d="M209.359 87.5362C209.359 89.3694 209.737 90.6343 210.499 91.3273C211.258 92.0202 212.577 92.3685 214.458 92.3685V93.7764C210.341 93.5968 207.64 93.5088 206.342 93.5088C205.045 93.5088 202.339 93.6005 198.227 93.7764V92.3685C200.103 92.3685 201.423 92.0239 202.185 91.3273C202.944 90.6343 203.325 89.3694 203.325 87.5362V49.2256C203.325 47.1687 202.944 45.6691 202.185 44.7305C201.423 43.7919 200.107 43.3226 198.227 43.3226V41.9147C199.612 42.0504 200.998 42.1163 202.387 42.1163C205.206 42.1163 207.53 41.8047 209.363 41.1777V87.5362H209.359Z" fill="#221F20"/>
<path d="M220.598 92.1345C219.235 90.7266 218.553 88.7687 218.553 86.2645C218.553 84.2516 219.099 82.5981 220.195 81.3001C221.291 80.0022 222.589 78.9756 224.084 78.213C225.583 77.454 227.559 76.6474 230.019 75.7968C232.522 74.9462 234.377 74.1653 235.587 73.4466C236.793 72.7317 237.398 71.7711 237.398 70.5611V66.3997C237.398 63.8076 236.848 62.0293 235.755 61.0651C234.659 60.1044 233.127 59.6241 231.159 59.6241C228.028 59.6241 225.814 60.4308 224.517 62.0403C225.411 62.264 226.159 62.7333 226.764 63.4482C227.369 64.1632 227.669 65.0578 227.669 66.1321C227.669 67.2503 227.31 68.134 226.595 68.7829C225.88 69.4319 224.964 69.7545 223.846 69.7545C222.592 69.7545 221.654 69.3622 221.027 68.5813C220.4 67.8003 220.089 66.847 220.089 65.7288C220.089 64.6545 220.345 63.7599 220.858 63.0449C221.372 62.33 222.145 61.615 223.171 60.8964C224.245 60.1374 225.609 59.5105 227.262 59.0192C228.915 58.5279 230.726 58.2822 232.695 58.2822C236.184 58.2822 238.82 59.1108 240.609 60.7644C241.727 61.7947 242.474 63.0339 242.856 64.4895C243.233 65.9451 243.424 67.8553 243.424 70.2275V88.8787C243.424 89.9969 243.581 90.8036 243.893 91.2949C244.205 91.7862 244.744 92.0318 245.502 92.0318C246.037 92.0318 246.543 91.9108 247.013 91.6615C247.482 91.4159 247.984 91.0675 248.523 90.6202L249.26 91.7605C248.098 92.6551 247.1 93.2931 246.276 93.6707C245.447 94.052 244.41 94.2427 243.156 94.2427C241.008 94.2427 239.513 93.7074 238.662 92.6331C237.812 91.5588 237.387 90.1069 237.387 88.2737C236.045 90.5102 234.502 92.0648 232.757 92.9374C231.012 93.81 229.044 94.2463 226.855 94.2463C224.051 94.2463 221.962 93.5424 220.598 92.1345ZM237.401 86.4625V73.311C236.998 73.9379 236.441 74.4512 235.722 74.8545C235.008 75.2578 233.912 75.7931 232.434 76.4641C230.734 77.1791 229.359 77.861 228.311 78.51C227.259 79.1589 226.353 80.0425 225.594 81.1608C224.832 82.2791 224.454 83.709 224.454 85.4542C224.454 87.4671 224.946 88.9887 225.932 90.0153C226.914 91.0455 228.212 91.5588 229.821 91.5588C232.772 91.5625 235.297 89.8649 237.401 86.4625Z" fill="#221F20"/>
<path d="M305.614 92.4365V93.7784C303.825 93.6427 301.432 93.5767 298.437 93.5767C294.592 93.5767 291.729 93.6427 289.852 93.7784V92.4365C291.549 92.3485 292.77 92.1358 293.507 91.7985C294.243 91.4612 294.614 90.8489 294.614 89.9543C294.614 89.1953 294.346 88.1431 293.807 86.8012L289.716 75.7982H273.485L270.736 82.9111C269.841 85.3273 269.394 87.1605 269.394 88.4107C269.394 89.7966 269.874 90.8049 270.835 91.4319C271.795 92.0588 273.261 92.3925 275.23 92.4365V93.7784C272.682 93.6427 270.109 93.5767 267.517 93.5767C265.505 93.5767 263.83 93.6427 262.488 93.7784V92.4365C264.724 91.9012 266.491 89.9543 267.789 86.5995L283.551 45.9424H284.625L300.992 88.1431C302.058 90.9149 303.602 92.3485 305.614 92.4365ZM289.181 74.4563L281.667 54.3972L274.02 74.4563H289.181Z" fill="#221F20"/>
<path d="M332.409 59.8297C333.549 60.86 334.121 62.1102 334.121 63.5878C334.121 64.7501 333.773 65.7473 333.08 66.5723C332.387 67.4009 331.46 67.8115 330.298 67.8115C329.312 67.8115 328.476 67.4999 327.783 66.8729C327.091 66.246 326.742 65.3954 326.742 64.3248C326.742 62.8472 327.501 61.6409 329.022 60.7023C328.711 60.255 328.238 60.0314 327.615 60.0314C325.87 60.0314 324.283 60.7133 322.853 62.0772C321.42 63.4411 320.306 65.1094 319.499 67.0746C318.693 69.0435 318.293 70.8987 318.293 72.6439V86.866C318.293 88.9229 318.887 90.3565 320.071 91.1594C321.255 91.9661 323.033 92.3657 325.404 92.3657V93.7736L323.795 93.7076C319.235 93.572 316.328 93.506 315.075 93.506C313.913 93.506 311.273 93.5976 307.161 93.7736V92.3657C309.037 92.3657 310.357 92.0211 311.12 91.3244C311.878 90.6315 312.26 89.3666 312.26 87.5333V66.5393C312.26 64.4824 311.878 62.9828 311.12 62.0442C310.357 61.1056 309.041 60.6363 307.161 60.6363V59.2284C308.59 59.3641 309.979 59.4301 311.317 59.4301C314.136 59.4301 316.46 59.1184 318.293 58.4915V66.8766C319.1 64.6401 320.382 62.6492 322.149 60.904C323.916 59.1587 325.874 58.2861 328.018 58.2861C329.807 58.2861 331.269 58.7994 332.409 59.8297Z" fill="#221F20"/>
<path d="M347.805 59.2898H357.732V60.6317H347.805V86.5975C347.805 88.6103 348.175 90.0659 348.912 90.9568C349.649 91.8514 350.712 92.2988 352.098 92.2988C353.483 92.2988 354.667 91.7415 355.653 90.6195C356.636 89.5013 357.464 87.6681 358.135 85.1199L359.476 85.4572C358.358 91.6278 355.452 94.7149 350.756 94.7149C349.235 94.7149 347.981 94.5353 346.999 94.1796C346.016 93.8203 345.144 93.263 344.381 92.5041C343.399 91.5215 342.714 90.3115 342.336 88.8816C341.955 87.4517 341.764 85.5268 341.764 83.1107V60.6354H335.324V59.2935H341.764V49.0275C344.268 48.9395 346.28 48.6242 347.801 48.0889V59.2898H347.805Z" fill="#221F20"/>
<path d="M371.415 87.5381C371.415 89.3713 371.796 90.6362 372.555 91.3292C373.314 92.0222 374.634 92.3705 376.514 92.3705V93.7784C372.398 93.5987 369.696 93.5107 368.398 93.5107C367.101 93.5107 364.396 93.6024 360.283 93.7784V92.3705C362.16 92.3705 363.479 92.0258 364.242 91.3292C365 90.6362 365.382 89.3713 365.382 87.5381V49.2275C365.382 47.1706 365 45.6711 364.242 44.7325C363.479 43.7939 362.163 43.3246 360.283 43.3246V41.9166C361.668 42.0523 363.054 42.1183 364.44 42.1183C367.258 42.1183 369.582 41.8066 371.415 41.1797V87.5381Z" fill="#221F20"/>
<path d="M382.65 92.1345C381.286 90.7266 380.604 88.7687 380.604 86.2645C380.604 84.2516 381.151 82.5981 382.247 81.3001C383.343 80.0022 384.64 78.9756 386.136 78.213C387.635 77.454 389.611 76.6474 392.071 75.7968C394.574 74.9462 396.429 74.1653 397.639 73.4466C398.845 72.7317 399.449 71.7711 399.449 70.5611V66.3997C399.449 63.8076 398.9 62.0293 397.807 61.0651C396.711 60.1044 395.179 59.6241 393.211 59.6241C390.08 59.6241 387.866 60.4308 386.568 62.0403C387.463 62.264 388.211 62.7333 388.815 63.4482C389.42 64.1632 389.721 65.0578 389.721 66.1321C389.721 67.2503 389.362 68.134 388.647 68.7829C387.932 69.4319 387.016 69.7545 385.898 69.7545C384.644 69.7545 383.706 69.3622 383.079 68.5813C382.452 67.8003 382.14 66.847 382.14 65.7288C382.14 64.6545 382.397 63.7599 382.91 63.0449C383.423 62.33 384.197 61.615 385.223 60.8964C386.297 60.1374 387.661 59.5105 389.314 59.0192C390.967 58.5279 392.778 58.2822 394.746 58.2822C398.236 58.2822 400.872 59.1108 402.66 60.7644C403.778 61.7947 404.526 63.0339 404.907 64.4895C405.285 65.9451 405.476 67.8553 405.476 70.2275V88.8787C405.476 89.9969 405.633 90.8036 405.945 91.2949C406.256 91.7862 406.795 92.0318 407.554 92.0318C408.089 92.0318 408.595 91.9108 409.064 91.6615C409.533 91.4159 410.036 91.0675 410.574 90.6202L411.311 91.7605C410.149 92.6551 409.152 93.2931 408.327 93.6707C407.499 94.052 406.462 94.2427 405.208 94.2427C403.06 94.2427 401.564 93.7074 400.714 92.6331C399.864 91.5588 399.438 90.1069 399.438 88.2737C398.097 90.5102 396.554 92.0648 394.809 92.9374C393.064 93.81 391.095 94.2463 388.907 94.2463C386.103 94.2463 384.014 93.5424 382.65 92.1345ZM399.453 86.4625V73.311C399.05 73.9379 398.493 74.4512 397.774 74.8545C397.059 75.2578 395.963 75.7931 394.486 76.4641C392.785 77.1791 391.411 77.861 390.362 78.51C389.31 79.1589 388.405 80.0425 387.646 81.1608C386.884 82.2791 386.506 83.709 386.506 85.4542C386.506 87.4671 386.997 88.9887 387.983 90.0153C388.966 91.0455 390.263 91.5588 391.873 91.5588C394.823 91.5625 397.349 89.8649 399.453 86.4625Z" fill="#221F20"/>
<path d="M442.986 60.8346C443.837 61.7292 444.438 62.8474 444.797 64.1894C445.156 65.5313 445.332 67.3425 445.332 69.623V87.5372C445.332 89.3704 445.713 90.6354 446.472 91.3283C447.231 92.0213 448.55 92.3696 450.431 92.3696V93.7775C446.318 93.5978 443.635 93.5098 442.381 93.5098C441.128 93.5098 438.624 93.6015 434.867 93.7775V92.3696C436.52 92.3696 437.671 92.0249 438.32 91.3283C438.969 90.6354 439.291 89.3704 439.291 87.5372V68.1491C439.291 65.6449 438.932 63.731 438.217 62.4111C437.502 61.0912 436.047 60.4313 433.859 60.4313C432.026 60.4313 430.391 60.9666 428.961 62.0408C427.528 63.1151 426.425 64.5817 425.64 66.4369C424.856 68.2921 424.467 70.3636 424.467 72.6442V87.5372C424.467 89.3704 424.79 90.6354 425.439 91.3283C426.088 92.0213 427.239 92.3696 428.892 92.3696V93.7775C425.135 93.5978 422.631 93.5098 421.377 93.5098C420.124 93.5098 417.44 93.6015 413.328 93.7775V92.3696C415.204 92.3696 416.524 92.0249 417.287 91.3283C418.045 90.6354 418.427 89.3704 418.427 87.5372V66.5395C418.427 64.4827 418.045 62.9831 417.287 62.0445C416.524 61.1059 415.208 60.6366 413.328 60.6366V59.2287C414.757 59.3643 416.146 59.4303 417.488 59.4303C420.307 59.4303 422.631 59.1187 424.464 58.4917V66.4075C425.582 63.5441 427.136 61.4762 429.126 60.2003C431.117 58.9244 433.364 58.2901 435.867 58.2901C439.005 58.2864 441.373 59.137 442.986 60.8346Z" fill="#221F20"/>
<path d="M485.041 90.9577C485.8 91.8963 487.12 92.3656 489 92.3656V93.7735C487.614 93.6379 486.225 93.5719 484.84 93.5719C482.021 93.5719 479.697 93.8835 477.864 94.5105V88.5378C477.057 90.5507 475.852 92.0833 474.242 93.1356C472.633 94.1878 470.665 94.7121 468.341 94.7121C464.048 94.7121 460.683 93.1686 458.246 90.0814C455.808 86.9943 454.613 82.4772 454.657 76.5303C454.657 72.6402 455.339 69.3184 456.702 66.5686C458.066 63.8187 459.899 61.7509 462.201 60.3613C464.503 58.9754 467.039 58.2824 469.814 58.2824C471.511 58.2824 473.069 58.6087 474.477 59.254C475.885 59.903 477.014 60.8966 477.864 62.2385V49.2226C477.864 47.1658 477.483 45.6662 476.724 44.7276C475.961 43.789 474.646 43.3197 472.765 43.3197V41.9118C474.195 42.0474 475.584 42.1134 476.922 42.1134C479.741 42.1134 482.065 41.8018 483.898 41.1748V86.4627C483.901 88.5232 484.279 90.0191 485.041 90.9577ZM474.979 90.6901C476.365 89.3481 477.329 87.4489 477.864 84.9887V64.9957C476.658 61.5529 474.151 59.8296 470.349 59.8296C467.575 59.8296 465.342 61.2486 463.641 64.09C461.941 66.9315 461.116 71.0783 461.16 76.5339C461.116 81.9016 461.875 85.9383 463.44 88.6442C465.005 91.35 467.285 92.7029 470.283 92.7029C472.028 92.7029 473.593 92.032 474.979 90.6901Z" fill="#221F20"/>
</svg>
